<svg width="800" height="500" viewBox="0 0 800 500" fill="none" xmlns="http://www.w3.org/2000/svg">
  <rect width="800" height="500" rx="32" fill="#0F2D4B"/>
  <!-- Phone -->
  <rect x="470" y="80" width="210" height="340" rx="30" fill="white"/>
  <rect x="490" y="110" width="170" height="60" rx="16" fill="#007EFC" fill-opacity="0.12"/>
  <rect x="500" y="122" width="100" height="10" rx="5" fill="#0F2D4B" fill-opacity="0.8"/>
  <rect x="500" y="140" width="130" height="8" rx="4" fill="#007EFC"/>
  <rect x="490" y="190" width="170" height="60" rx="16" fill="#007EFC" fill-opacity="0.06"/>
  <rect x="500" y="202" width="120" height="10" rx="5" fill="#0F2D4B" fill-opacity="0.8"/>
  <rect x="500" y="220" width="80" height="8" rx="4" fill="#007EFC"/>
  <rect x="490" y="270" width="170" height="60" rx="16" fill="#007EFC" fill-opacity="0.06"/>
  <rect x="500" y="282" width="140" height="10" rx="5" fill="#0F2D4B" fill-opacity="0.8"/>
  <rect x="500" y="300" width="90" height="8" rx="4" fill="#007EFC"/>
  <rect x="490" y="350" width="90" height="24" rx="12" fill="#007EFC"/>
  <rect x="570" y="350" width="90" height="24" rx="12" fill="#0F2D4B" fill-opacity="0.9"/>
  <!-- Phone details -->
  <rect x="520" y="92" width="110" height="6" rx="3" fill="#E5E7EB"/>
  <circle cx="575" cy="394" r="10" fill="#E5E7EB"/>
  <!-- Map card -->
  <rect x="70" y="90" width="320" height="260" rx="26" fill="white"/>
  <rect x="90" y="110" width="120" height="16" rx="8" fill="#0F2D4B" fill-opacity="0.85"/>
  <rect x="90" y="136" width="220" height="10" rx="5" fill="#A2B5C7"/>
  <!-- Route line -->
  <circle cx="130" cy="210" r="10" fill="#007EFC"/>
  <circle cx="310" cy="210" r="10" fill="#0F2D4B"/>
  <path d="M140 210C180 190 230 190 300 210" stroke="#007EFC" stroke-width="3" stroke-dasharray="6 6" stroke-linecap="round"/>
  <!-- Plane icon -->
  <path d="M214 196L228 205L216 210L206 225L199 222L206 208L190 205L193 198L214 196Z" fill="#007EFC"/>
  <!-- Info chips -->
  <rect x="90" y="250" width="80" height="20" rx="10" fill="#007EFC" fill-opacity="0.12"/>
  <rect x="180" y="250" width="70" height="20" rx="10" fill="#007EFC" fill-opacity="0.12"/>
  <rect x="260" y="250" width="90" height="20" rx="10" fill="#007EFC" fill-opacity="0.12"/>
  <rect x="90" y="280" width="110" height="20" rx="10" fill="#007EFC" fill-opacity="0.12"/>
  <!-- Bottom label -->
  <rect x="150" y="330" width="160" height="34" rx="17" fill="#007EFC"/>
  <rect x="158" y="338" width="144" height="18" rx="9" fill="white" fill-opacity="0.9"/>
</svg>