<svg width="800" height="420" viewBox="0 0 800 420" fill="none" xmlns="http://www.w3.org/2000/svg">
  <rect width="800" height="420" rx="28" fill="#FFFFFF"/>
  <!-- Left: phone with credit app -->
  <rect x="90" y="80" width="190" height="280" rx="26" fill="#0F2D4B"/>
  <rect x="105" y="105" width="160" height="40" rx="14" fill="#FFFFFF" fill-opacity="0.08"/>
  <rect x="115" y="117" width="80" height="10" rx="5" fill="#E5E7EB"/>
  <rect x="115" y="137" width="60" height="6" rx="3" fill="#007EFC"/>
  <!-- Score circle -->
  <circle cx="185" cy="200" r="46" fill="#FFFFFF"/>
  <path d="M185 158C207 158 225 176 225 199C225 221 207 239 185 239C163 239 145 221 145 199C145 176 163 158 185 158Z"
        stroke="#007EFC" stroke-width="4"/>
  <text x="173" y="206" fill="#007EFC" font-family="system-ui" font-size="20" font-weight="bold">781</text>
  <!-- Personal data lines -->
  <rect x="105" y="250" width="130" height="10" rx="5" fill="#FFFFFF" fill-opacity="0.4"/>
  <rect x="105" y="270" width="100" height="8" rx="4" fill="#FFFFFF" fill-opacity="0.25"/>
  <rect x="105" y="290" width="120" height="8" rx="4" fill="#FFFFFF" fill-opacity="0.25"/>
  <!-- Right: forensic & privacy panel -->
  <rect x="320" y="90" width="380" height="260" rx="22" fill="#F3F4F6"/>
  <rect x="345" y="110" width="230" height="12" rx="6" fill="#0F2D4B" fill-opacity="0.85"/>
  <rect x="345" y="132" width="270" height="8" rx="4" fill="#A2B5C7"/>
  <rect x="345" y="150" width="240" height="8" rx="4" fill="#CBD5E1"/>
  <!-- Disk / artifact blocks -->
  <rect x="345" y="185" width="80" height="60" rx="10" fill="#FFFFFF"/>
  <rect x="435" y="185" width="80" height="60" rx="10" fill="#FFFFFF"/>
  <rect x="525" y="185" width="80" height="60" rx="10" fill="#FFFFFF"/>
  <circle cx="385" cy="215" r="16" fill="#007EFC"/>
  <circle cx="475" cy="215" r="16" fill="#0F2D4B"/>
  <circle cx="565" cy="215" r="16" fill="#A2B5C7"/>
  <!-- Magnifying glass -->
  <circle cx="520" cy="285" r="40" stroke="#0F2D4B" stroke-width="4"/>
  <circle cx="520" cy="285" r="24" stroke="#007EFC" stroke-width="4"/>
  <line x1="544" y1="309" x2="565" y2="330" stroke="#0F2D4B" stroke-width="5" stroke-linecap="round"/>
  <rect x="345" y="260" width="120" height="10" rx="5" fill="#A2B5C7"/>
  <rect x="345" y="280" width="160" height="8" rx="4" fill="#CBD5E1"/>
</svg>